<svg width="504" height="288" viewBox="0 0 504 288" fill="none" xmlns="http://www.w3.org/2000/svg">
<path opacity="0.1" d="M503.369 136.146C505.321 131.088 501.284 129.589 498.8 126.998C494.723 122.739 490.002 119.087 485.202 115.604C481.741 113.1 476.884 112.538 471.941 114.27C459.439 118.628 446.71 120.086 444.757 107.436C443.624 100.085 445.168 91.7571 446.395 83.8986C446.73 81.7317 447.015 79.4334 446.078 77.7783C443.213 72.735 427.764 74.3595 422.02 73.5024C412.968 72.1612 404.342 69.8544 396.704 65.8697C391.094 62.9454 388.84 58.603 384.044 55.04C380.551 52.4392 374.96 53.316 370.593 51.9814C362.491 49.5178 358.908 39.6449 349.827 39.6686C346.53 39.6809 342.843 41.0568 339.847 40.2785C336.438 39.3939 334.775 35.9349 331.545 34.7361C327.686 33.3051 322.602 35.341 318.109 35.4633C311.806 35.6203 307.416 32.0374 302.839 29.1881C298.348 26.3915 292.61 25.3323 288.436 22.2303C287.42 21.4806 285.55 22.7571 285.713 24.1137L285.721 24.1444C285.384 21.5493 277.796 4.13501 274.32 9.79578C272.925 12.066 272.439 14.7235 272.133 17.0669C271.696 10.9195 268.459 1.5321 261.591 0.940175C259.674 0.776517 257.517 1.86725 256.024 3.58838C246.015 15.1673 236.427 31.0042 223.317 40.1337C219.426 42.8492 214.54 44.7432 210.472 44.2816C205.424 43.7279 204.494 40.3025 198.355 43.5905C173.396 56.9529 150.961 75.0948 129.054 93.9003C107.279 112.588 82.6137 130.178 63.1957 151.399C48.4227 167.548 41.1758 185.338 32.9 203.969C29.74 211.083 26.5774 220.147 20.9768 226.354C15.8833 232.015 9.39032 234.241 5.75166 241.532C-11.8352 276.686 16.0613 285.589 42.7834 287.587C64.2074 289.19 82.9064 278.691 104.121 268.629C118.846 261.641 133.714 260.011 148.273 252.715C159.163 247.253 167.408 238.718 178.205 243.105C186.138 246.337 191.188 253.263 198.122 257.745C200.484 259.272 204.883 258.902 207.828 256.779C215.533 251.23 223.641 251.309 231.813 249.616C239.181 248.089 246.596 245.56 253.805 242.173C259.502 239.503 267.316 233.008 273.122 232.666C275.654 232.523 277.965 233.14 280.261 233.695C289.092 235.822 297.375 235.667 307.312 233.182C318.78 230.316 331.104 228.073 342.458 223.792C355.961 218.702 368.735 210.77 381.506 203.178C395.572 194.811 411.086 187.213 425.167 188.131C438.252 188.99 446.372 195.255 459.588 182.436C473.108 169.318 486.069 155.509 499.283 142.102C500.534 140.83 501.671 139.425 502.525 137.917C502.888 137.278 503.174 136.685 503.388 136.128L503.369 136.146Z" fill="url(#paint0_linear_47_295)"/>
<defs>
<linearGradient id="paint0_linear_47_295" x1="107.811" y1="-66.2141" x2="332.094" y2="498.406" gradientUnits="userSpaceOnUse">
<stop stop-color="#D9AF63"/>
<stop offset="0.53" stop-color="#BF8C4E"/>
<stop offset="1" stop-color="#BF793B"/>
</linearGradient>
</defs>
</svg>
